<svg version="1.1" xmlns="http://www.w3.org/2000/svg" xmlns:xlink="http://www.w3.org/1999/xlink" x="0px" y="0px" viewBox="6 0 84 83.14" xml:space="preserve">
	<style>
		@keyframes opacity {
	    0%      { fill-opacity: 0.15; }
	    50%     { fill-opacity: 0.35; }
	    100%    { fill-opacity: 0.15; }
		}
		@-webkit-keyframes opacity {
			0%      { fill-opacity: 0.15; }
			50%     { fill-opacity: 0.35; }
			100%    { fill-opacity: 0.15; }
		}
		@-moz-keyframes opacity {
			0%      { fill-opacity: 0.15; }
			50%     { fill-opacity: 0.35; }
			100%    { fill-opacity: 0.15; }
		}
		@-o-keyframes opacity {
			0%      { fill-opacity: 0.15; }
			50%     { fill-opacity: 0.35; }
			100%    { fill-opacity: 0.15; }
		}
		.Triangles {
			fill: #fff;
			fill-opacity: 0.25;
		  mix-blend-mode:    screen;
		}
		.Small_Outline {
			fill: #fff;
			fill-opacity: 0.40;
		}
		.Large_Outline {
			fill: #fff;
			fill-opacity: 0.45;
		}
  </style>
	<g id="Background">
		<rect y="0" fill="none" width="84" height="83.14"/>
	</g>
	<g id="Tiles">
		<g class="Pattern" id="Pattern">
			<g class="Outlines">
				<path class="Small_Outline" d="M65.45,72.3c0.04,0.16-0.07,0.32-0.24,0.32H54.65c-0.19,0-0.31-0.21-0.21-0.38l5.27-9.14
					c0.09-0.15,0.31-0.16,0.42-0.02l-0.71-1.23c0.1,0.17-0.02,0.38-0.21,0.38H48.65c-0.19,0-0.31-0.21-0.21-0.38l5.27-9.13
					c0.1-0.17,0.34-0.17,0.44,0l-0.7-1.19c0.04,0.15-0.07,0.31-0.24,0.31H42.79c-0.17,0-0.28-0.16-0.24-0.31l-0.7,1.19
					c0.1-0.17,0.34-0.17,0.44,0l5.27,9.13c0.1,0.17-0.02,0.38-0.21,0.38H36.79c-0.19,0-0.31-0.21-0.21-0.38l-0.71,1.23
					c0.11-0.14,0.33-0.13,0.42,0.02l5.27,9.14c0.1,0.17-0.02,0.38-0.21,0.38H30.79c-0.17,0-0.28-0.16-0.24-0.32l-0.69,1.19
					c0.1-0.16,0.33-0.16,0.43,0.01l5.2,9.02c0.1,0.16-0.02,0.37-0.21,0.37h1.44c-0.19,0-0.31-0.21-0.21-0.38l5.27-9.14
					c0.1-0.16,0.34-0.16,0.44,0l5.27,9.14c0.1,0.17-0.02,0.38-0.21,0.38h1.44c-0.19,0-0.31-0.21-0.21-0.38l5.27-9.14
					c0.1-0.16,0.34-0.16,0.44,0l5.27,9.14c0.1,0.17-0.02,0.38-0.21,0.38h1.44c-0.19,0-0.31-0.21-0.21-0.37l5.2-9.02
					c0.1-0.17,0.33-0.17,0.43-0.01L65.45,72.3z M41.56,73.24l-5.34,9.27c-0.1,0.16-0.34,0.16-0.44,0l-5.34-9.27
					c-0.1-0.16,0.02-0.37,0.21-0.37h10.7C41.54,72.87,41.66,73.08,41.56,73.24z M42.44,52.47c-0.1-0.17,0.02-0.38,0.21-0.38h10.7
					c0.19,0,0.31,0.21,0.21,0.38l-5.34,9.26c-0.05,0.08-0.14,0.12-0.22,0.12s-0.17-0.04-0.22-0.12L42.44,52.47z M41.78,72.12
					l-5.34-9.27c-0.1-0.16,0.02-0.37,0.21-0.37h10.7c0.19,0,0.31,0.21,0.21,0.37l-5.34,9.27C42.12,72.28,41.88,72.28,41.78,72.12z
					 M53.56,73.24l-5.34,9.27c-0.05,0.09-0.14,0.13-0.22,0.13s-0.17-0.04-0.22-0.13l-5.34-9.27c-0.1-0.16,0.02-0.37,0.21-0.37h10.7
					C53.54,72.87,53.66,73.08,53.56,73.24z M53.35,72.62h-10.7c-0.19,0-0.31-0.21-0.21-0.38l5.34-9.26c0.05-0.08,0.14-0.12,0.22-0.12
					s0.17,0.04,0.22,0.12l5.34,9.26C53.66,72.41,53.54,72.62,53.35,72.62z M53.78,72.12l-5.34-9.27c-0.1-0.16,0.02-0.37,0.21-0.37h10.7
					c0.19,0,0.31,0.21,0.21,0.37l-5.34,9.27C54.12,72.28,53.88,72.28,53.78,72.12z M65.56,73.24l-5.34,9.27c-0.1,0.17-0.34,0.17-0.44,0
					l-5.34-9.27c-0.01-0.02-0.02-0.04-0.03-0.06c-0.04-0.15,0.07-0.31,0.24-0.31h10.7C65.54,72.87,65.66,73.08,65.56,73.24z
					 M6.55,52.41c-0.04-0.16,0.07-0.32,0.24-0.32h10.56c0.19,0,0.31,0.21,0.21,0.38l-5.27,9.14c-0.09,0.15-0.31,0.16-0.42,0.02
					l0.71,1.23c-0.1-0.17,0.02-0.38,0.21-0.38h10.56c0.19,0,0.31,0.21,0.21,0.38l-5.27,9.13c-0.1,0.17-0.34,0.17-0.44,0l0.7,1.19
					c-0.04-0.15,0.07-0.31,0.24-0.31h10.42c0.17,0,0.28,0.16,0.24,0.31l0.7-1.19c-0.1,0.17-0.34,0.17-0.44,0l-5.27-9.13
					c-0.1-0.17,0.02-0.38,0.21-0.38h10.56c0.19,0,0.31,0.21,0.21,0.38l0.71-1.23c-0.11,0.14-0.33,0.13-0.42-0.02l-5.27-9.14
					c-0.1-0.17,0.02-0.38,0.21-0.38h10.56c0.17,0,0.28,0.16,0.24,0.32l0.69-1.19c-0.1,0.16-0.33,0.16-0.43-0.01l-5.2-9.02
					c-0.1-0.16,0.02-0.37,0.21-0.37h-1.44c0.19,0,0.31,0.21,0.21,0.38l-5.27,9.14c-0.1,0.16-0.34,0.16-0.44,0l-5.27-9.14
					c-0.1-0.17,0.02-0.38,0.21-0.38h-1.44c0.19,0,0.31,0.21,0.21,0.38l-5.27,9.14c-0.1,0.16-0.34,0.16-0.44,0l-5.27-9.14
					c-0.1-0.17,0.02-0.38,0.21-0.38h-1.44c0.19,0,0.31,0.21,0.21,0.37l-5.2,9.02c-0.1,0.17-0.33,0.17-0.43,0.01L6.55,52.41z
					 M30.44,51.47l5.34-9.27c0.1-0.16,0.34-0.16,0.44,0l5.34,9.27c0.1,0.16-0.02,0.37-0.21,0.37h-10.7
					C30.46,51.84,30.34,51.63,30.44,51.47z M29.56,72.24c0.1,0.17-0.02,0.38-0.21,0.38h-10.7c-0.19,0-0.31-0.21-0.21-0.38l5.34-9.26
					c0.05-0.08,0.14-0.12,0.22-0.12s0.17,0.04,0.22,0.12L29.56,72.24z M30.22,52.59l5.34,9.27c0.1,0.16-0.02,0.37-0.21,0.37h-10.7
					c-0.19,0-0.31-0.21-0.21-0.37l5.34-9.27C29.88,52.43,30.12,52.43,30.22,52.59z M18.44,51.47l5.34-9.27
					c0.05-0.09,0.14-0.13,0.22-0.13s0.17,0.04,0.22,0.13l5.34,9.27c0.1,0.16-0.02,0.37-0.21,0.37h-10.7
					C18.46,51.84,18.34,51.63,18.44,51.47z M18.65,52.09h10.7c0.19,0,0.31,0.21,0.21,0.38l-5.34,9.26c-0.05,0.08-0.14,0.12-0.22,0.12
					s-0.17-0.04-0.22-0.12l-5.34-9.26C18.34,52.3,18.46,52.09,18.65,52.09z M18.22,52.59l5.34,9.27c0.1,0.16-0.02,0.37-0.21,0.37h-10.7
					c-0.19,0-0.31-0.21-0.21-0.37l5.34-9.27C17.88,52.43,18.12,52.43,18.22,52.59z M6.44,51.47l5.34-9.27c0.1-0.17,0.34-0.17,0.44,0
					l5.34,9.27c0.01,0.02,0.02,0.04,0.03,0.06c0.04,0.15-0.07,0.31-0.24,0.31H6.65C6.46,51.84,6.34,51.63,6.44,51.47z M90.14,51.22
					c-0.1,0.16-0.33,0.16-0.43-0.01l-5.2-9.02c-0.1-0.16,0.02-0.37,0.21-0.37h-1.44c0.19,0,0.31,0.21,0.21,0.38l-5.27,9.14
					c-0.1,0.16-0.34,0.16-0.44,0l-5.27-9.14c-0.1-0.17,0.02-0.38,0.21-0.38h-1.44c0.19,0,0.31,0.21,0.21,0.38l-5.27,9.14
					c-0.1,0.16-0.34,0.16-0.44,0l-5.27-9.14c-0.1-0.17,0.02-0.38,0.21-0.38h-1.44c0.19,0,0.31,0.21,0.21,0.37l-5.2,9.02
					c-0.1,0.17-0.33,0.17-0.43,0.01l0.69,1.19c-0.04-0.16,0.07-0.32,0.24-0.32h10.56c0.19,0,0.31,0.21,0.21,0.38l-5.27,9.14
					c-0.09,0.15-0.31,0.16-0.42,0.02l0.71,1.23c-0.1-0.17,0.02-0.38,0.21-0.38h10.56c0.19,0,0.31,0.21,0.21,0.38l-5.27,9.13
					c-0.1,0.17-0.34,0.17-0.44,0l0.7,1.19c-0.04-0.15,0.07-0.31,0.24-0.31h10.42c0.17,0,0.28,0.16,0.24,0.31l0.7-1.19
					c-0.1,0.17-0.34,0.17-0.44,0l-5.27-9.13c-0.1-0.17,0.02-0.38,0.21-0.38h10.56c0.19,0,0.31,0.21,0.21,0.38l0.71-1.23
					c-0.11,0.14-0.33,0.13-0.42-0.02l-5.27-9.14c-0.1-0.17,0.02-0.38,0.21-0.38h10.56c0.17,0,0.28,0.16,0.24,0.32L90.14,51.22z
					 M65.35,51.84h-10.7c-0.19,0-0.31-0.21-0.21-0.37l5.34-9.27c0.1-0.16,0.34-0.16,0.44,0l5.34,9.27
					C65.66,51.63,65.54,51.84,65.35,51.84z M71.78,62.98c0.05-0.08,0.14-0.12,0.22-0.12s0.17,0.04,0.22,0.12l5.34,9.26
					c0.1,0.17-0.02,0.38-0.21,0.38h-10.7c-0.19,0-0.31-0.21-0.21-0.38L71.78,62.98z M66.22,52.59l5.34,9.27
					c0.1,0.16-0.02,0.37-0.21,0.37h-10.7c-0.19,0-0.31-0.21-0.21-0.37l5.34-9.27C65.88,52.43,66.12,52.43,66.22,52.59z M77.35,51.84
					h-10.7c-0.19,0-0.31-0.21-0.21-0.37l5.34-9.27c0.05-0.09,0.14-0.13,0.22-0.13s0.17,0.04,0.22,0.13l5.34,9.27
					C77.66,51.63,77.54,51.84,77.35,51.84z M77.56,52.47l-5.34,9.26c-0.05,0.08-0.14,0.12-0.22,0.12s-0.17-0.04-0.22-0.12l-5.34-9.26
					c-0.1-0.17,0.02-0.38,0.21-0.38h10.7C77.54,52.09,77.66,52.3,77.56,52.47z M78.22,52.59l5.34,9.27c0.1,0.16-0.02,0.37-0.21,0.37
					h-10.7c-0.19,0-0.31-0.21-0.21-0.37l5.34-9.27C77.88,52.43,78.12,52.43,78.22,52.59z M89.35,51.84h-10.7
					c-0.17,0-0.28-0.16-0.24-0.31c0.01-0.02,0.02-0.04,0.03-0.06l5.34-9.27c0.1-0.17,0.34-0.17,0.44,0l5.34,9.27
					C89.66,51.63,89.54,51.84,89.35,51.84z M17.45,72.3c0.04,0.16-0.07,0.32-0.24,0.32H6.65c-0.19,0-0.31-0.21-0.21-0.38l5.27-9.14
					c0.09-0.15,0.31-0.16,0.42-0.02l-0.71-1.23c0.1,0.17-0.02,0.38-0.21,0.38H0.65c-0.19,0-0.31-0.21-0.21-0.38l5.27-9.13
					c0.1-0.17,0.34-0.17,0.44,0l-0.7-1.19c0.04,0.15-0.07,0.31-0.24,0.31H0v0.25h5.35c0.19,0,0.31,0.21,0.21,0.38l-5.34,9.26
					C0.17,61.81,0.08,61.85,0,61.85v1.01c0.08,0,0.17,0.04,0.22,0.12l5.34,9.26c0.1,0.17-0.02,0.38-0.21,0.38H0v0.25h5.35
					c0.19,0,0.31,0.21,0.21,0.37l-5.34,9.27C0.17,82.6,0.08,82.64,0,82.64v0.25h0.72c-0.19,0-0.31-0.21-0.21-0.38l5.27-9.14
					c0.1-0.16,0.34-0.16,0.44,0l5.27,9.14c0.1,0.17-0.02,0.38-0.21,0.38h1.44c-0.19,0-0.31-0.21-0.21-0.37l5.2-9.02
					c0.1-0.17,0.33-0.17,0.43-0.01L17.45,72.3z M5.78,72.12l-5.34-9.27c-0.1-0.16,0.02-0.37,0.21-0.37h10.7c0.19,0,0.31,0.21,0.21,0.37
					l-5.34,9.27C6.12,72.28,5.88,72.28,5.78,72.12z M17.56,73.24l-5.34,9.27c-0.1,0.16-0.34,0.16-0.44,0l-5.34-9.27
					c-0.1-0.16,0.02-0.37,0.21-0.37h10.7C17.54,72.87,17.66,73.08,17.56,73.24z M77.86,73.49c0.1-0.16,0.33-0.16,0.43,0.01l5.2,9.02
					c0.1,0.16-0.02,0.37-0.21,0.37h1.44c-0.19,0-0.31-0.21-0.21-0.38l5.27-9.14c0.1-0.16,0.34-0.16,0.44,0l5.27,9.14
					c0.1,0.17-0.02,0.38-0.21,0.38H96v-0.25c-0.08,0-0.17-0.04-0.22-0.13l-5.34-9.27c-0.1-0.16,0.02-0.37,0.21-0.37H96v-0.25h-5.35
					c-0.19,0-0.31-0.21-0.21-0.38l5.34-9.26c0.05-0.08,0.14-0.12,0.22-0.12v-1.01c-0.08,0-0.17-0.04-0.22-0.12l-5.34-9.26
					c-0.1-0.17,0.02-0.38,0.21-0.38H96v-0.25h-5.21c-0.17,0-0.28-0.16-0.24-0.31l-0.7,1.19c0.1-0.17,0.34-0.17,0.44,0l5.27,9.13
					c0.1,0.17-0.02,0.38-0.21,0.38H84.79c-0.19,0-0.31-0.21-0.21-0.38l-0.71,1.23c0.11-0.14,0.33-0.13,0.42,0.02l5.27,9.14
					c0.1,0.17-0.02,0.38-0.21,0.38H78.79c-0.17,0-0.28-0.16-0.24-0.32L77.86,73.49z M89.78,72.12l-5.34-9.27
					c-0.1-0.16,0.02-0.37,0.21-0.37h10.7c0.19,0,0.31,0.21,0.21,0.37l-5.34,9.27C90.12,72.28,89.88,72.28,89.78,72.12z M78.65,72.87
					h10.7c0.19,0,0.31,0.21,0.21,0.37l-5.34,9.27c-0.1,0.16-0.34,0.16-0.44,0l-5.34-9.27C78.34,73.08,78.46,72.87,78.65,72.87z
					 M66.14,9.65c-0.1,0.16-0.33,0.16-0.43-0.01l-5.2-9.02c-0.1-0.16,0.02-0.37,0.21-0.37h-1.44c0.19,0,0.31,0.21,0.21,0.38l-5.27,9.14
					c-0.1,0.16-0.34,0.16-0.44,0l-5.27-9.14c-0.1-0.17,0.02-0.38,0.21-0.38h-1.44c0.19,0,0.31,0.21,0.21,0.38l-5.27,9.14
					c-0.1,0.16-0.34,0.16-0.44,0l-5.27-9.14c-0.1-0.17,0.02-0.38,0.21-0.38h-1.44c0.19,0,0.31,0.21,0.21,0.37l-5.2,9.02
					c-0.1,0.17-0.33,0.17-0.43,0.01l0.69,1.19c-0.04-0.16,0.07-0.32,0.24-0.32h10.56c0.19,0,0.31,0.21,0.21,0.38l-5.27,9.14
					c-0.09,0.15-0.31,0.16-0.42,0.02l0.71,1.23c-0.1-0.17,0.02-0.38,0.21-0.38h10.56c0.19,0,0.31,0.21,0.21,0.38l-5.27,9.13
					c-0.1,0.17-0.34,0.17-0.44,0l0.7,1.19c-0.04-0.15,0.07-0.31,0.24-0.31h10.42c0.17,0,0.28,0.16,0.24,0.31l0.7-1.19
					c-0.1,0.17-0.34,0.17-0.44,0l-5.27-9.13c-0.1-0.17,0.02-0.38,0.21-0.38h10.56c0.19,0,0.31,0.21,0.21,0.38l0.71-1.23
					c-0.11,0.14-0.33,0.13-0.42-0.02l-5.27-9.14c-0.1-0.17,0.02-0.38,0.21-0.38h10.56c0.17,0,0.28,0.16,0.24,0.32L66.14,9.65z
					 M41.35,10.27h-10.7c-0.19,0-0.31-0.21-0.21-0.37l5.34-9.27c0.1-0.16,0.34-0.16,0.44,0l5.34,9.27
					C41.66,10.06,41.54,10.27,41.35,10.27z M47.78,21.41c0.05-0.08,0.14-0.12,0.22-0.12s0.17,0.04,0.22,0.12l5.34,9.26
					c0.1,0.17-0.02,0.38-0.21,0.38h-10.7c-0.19,0-0.31-0.21-0.21-0.38L47.78,21.41z M42.22,11.02l5.34,9.27
					c0.1,0.16-0.02,0.37-0.21,0.37h-10.7c-0.19,0-0.31-0.21-0.21-0.37l5.34-9.27C41.88,10.86,42.12,10.86,42.22,11.02z M53.35,10.27
					h-10.7c-0.19,0-0.31-0.21-0.21-0.37l5.34-9.27C47.83,0.54,47.92,0.5,48,0.5s0.17,0.04,0.22,0.13l5.34,9.27
					C53.66,10.06,53.54,10.27,53.35,10.27z M53.56,10.9l-5.34,9.26c-0.05,0.08-0.14,0.12-0.22,0.12s-0.17-0.04-0.22-0.12l-5.34-9.26
					c-0.1-0.17,0.02-0.38,0.21-0.38h10.7C53.54,10.52,53.66,10.73,53.56,10.9z M54.22,11.02l5.34,9.27c0.1,0.16-0.02,0.37-0.21,0.37
					h-10.7c-0.19,0-0.31-0.21-0.21-0.37l5.34-9.27C53.88,10.86,54.12,10.86,54.22,11.02z M65.35,10.27h-10.7
					c-0.17,0-0.28-0.16-0.24-0.31c0.01-0.02,0.02-0.04,0.03-0.06l5.34-9.27c0.1-0.17,0.34-0.17,0.44,0l5.34,9.27
					C65.66,10.06,65.54,10.27,65.35,10.27z M5.86,31.92c0.1-0.16,0.33-0.16,0.43,0.01l5.2,9.02c0.1,0.16-0.02,0.37-0.21,0.37h1.44
					c-0.19,0-0.31-0.21-0.21-0.38l5.27-9.14c0.1-0.16,0.34-0.16,0.44,0l5.27,9.14c0.1,0.17-0.02,0.38-0.21,0.38h1.44
					c-0.19,0-0.31-0.21-0.21-0.38l5.27-9.14c0.1-0.16,0.34-0.16,0.44,0l5.27,9.14c0.1,0.17-0.02,0.38-0.21,0.38h1.44
					c-0.19,0-0.31-0.21-0.21-0.37l5.2-9.02c0.1-0.17,0.33-0.17,0.43-0.01l-0.69-1.19c0.04,0.16-0.07,0.32-0.24,0.32H30.65
					c-0.19,0-0.31-0.21-0.21-0.38l5.27-9.14c0.09-0.15,0.31-0.16,0.42-0.02l-0.71-1.23c0.1,0.17-0.02,0.38-0.21,0.38H24.65
					c-0.19,0-0.31-0.21-0.21-0.38l5.27-9.13c0.1-0.17,0.34-0.17,0.44,0l-0.7-1.19c0.04,0.15-0.07,0.31-0.24,0.31H18.79
					c-0.17,0-0.28-0.16-0.24-0.31l-0.7,1.19c0.1-0.17,0.34-0.17,0.44,0l5.27,9.13c0.1,0.17-0.02,0.38-0.21,0.38H12.79
					c-0.19,0-0.31-0.21-0.21-0.38l-0.71,1.23c0.11-0.14,0.33-0.13,0.42,0.02l5.27,9.14c0.1,0.17-0.02,0.38-0.21,0.38H6.79
					c-0.17,0-0.28-0.16-0.24-0.32L5.86,31.92z M30.65,31.3h10.7c0.19,0,0.31,0.21,0.21,0.37l-5.34,9.27c-0.1,0.16-0.34,0.16-0.44,0
					l-5.34-9.27C30.34,31.51,30.46,31.3,30.65,31.3z M24.22,20.16c-0.05,0.08-0.14,0.12-0.22,0.12s-0.17-0.04-0.22-0.12l-5.34-9.26
					c-0.1-0.17,0.02-0.38,0.21-0.38h10.7c0.19,0,0.31,0.21,0.21,0.38L24.22,20.16z M29.78,30.55l-5.34-9.27
					c-0.1-0.16,0.02-0.37,0.21-0.37h10.7c0.19,0,0.31,0.21,0.21,0.37l-5.34,9.27C30.12,30.71,29.88,30.71,29.78,30.55z M18.65,31.3
					h10.7c0.19,0,0.31,0.21,0.21,0.37l-5.34,9.27c-0.05,0.09-0.14,0.13-0.22,0.13s-0.17-0.04-0.22-0.13l-5.34-9.27
					C18.34,31.51,18.46,31.3,18.65,31.3z M18.44,30.67l5.34-9.26c0.05-0.08,0.14-0.12,0.22-0.12s0.17,0.04,0.22,0.12l5.34,9.26
					c0.1,0.17-0.02,0.38-0.21,0.38h-10.7C18.46,31.05,18.34,30.84,18.44,30.67z M17.78,30.55l-5.34-9.27c-0.1-0.16,0.02-0.37,0.21-0.37
					h10.7c0.19,0,0.31,0.21,0.21,0.37l-5.34,9.27C18.12,30.71,17.88,30.71,17.78,30.55z M6.65,31.3h10.7c0.17,0,0.28,0.16,0.24,0.31
					c-0.01,0.02-0.02,0.04-0.03,0.06l-5.34,9.27c-0.1,0.17-0.34,0.17-0.44,0l-5.34-9.27C6.34,31.51,6.46,31.3,6.65,31.3z M89.45,30.73
					c0.04,0.16-0.07,0.32-0.24,0.32H78.65c-0.19,0-0.31-0.21-0.21-0.38l5.27-9.14c0.09-0.15,0.31-0.16,0.42-0.02l-0.71-1.23
					c0.1,0.17-0.02,0.38-0.21,0.38H72.65c-0.19,0-0.31-0.21-0.21-0.38l5.27-9.13c0.1-0.17,0.34-0.17,0.44,0l-0.7-1.19
					c0.04,0.15-0.07,0.31-0.24,0.31H66.79c-0.17,0-0.28-0.16-0.24-0.31l-0.7,1.19c0.1-0.17,0.34-0.17,0.44,0l5.27,9.13
					c0.1,0.17-0.02,0.38-0.21,0.38H60.79c-0.19,0-0.31-0.21-0.21-0.38l-0.71,1.23c0.11-0.14,0.33-0.13,0.42,0.02l5.27,9.14
					c0.1,0.17-0.02,0.38-0.21,0.38H54.79c-0.17,0-0.28-0.16-0.24-0.32l-0.69,1.19c0.1-0.16,0.33-0.16,0.43,0.01l5.2,9.02
					c0.1,0.16-0.02,0.37-0.21,0.37h1.44c-0.19,0-0.31-0.21-0.21-0.38l5.27-9.14c0.1-0.16,0.34-0.16,0.44,0l5.27,9.14
					c0.1,0.17-0.02,0.38-0.21,0.38h1.44c-0.19,0-0.31-0.21-0.21-0.38l5.27-9.14c0.1-0.16,0.34-0.16,0.44,0l5.27,9.14
					c0.1,0.17-0.02,0.38-0.21,0.38h1.44c-0.19,0-0.31-0.21-0.21-0.37l5.2-9.02c0.1-0.17,0.33-0.17,0.43-0.01L89.45,30.73z M65.56,31.67
					l-5.34,9.27c-0.1,0.16-0.34,0.16-0.44,0l-5.34-9.27c-0.1-0.16,0.02-0.37,0.21-0.37h10.7C65.54,31.3,65.66,31.51,65.56,31.67z
					 M66.44,10.9c-0.1-0.17,0.02-0.38,0.21-0.38h10.7c0.19,0,0.31,0.21,0.21,0.38l-5.34,9.26c-0.05,0.08-0.14,0.12-0.22,0.12
					s-0.17-0.04-0.22-0.12L66.44,10.9z M65.78,30.55l-5.34-9.27c-0.1-0.16,0.02-0.37,0.21-0.37h10.7c0.19,0,0.31,0.21,0.21,0.37
					l-5.34,9.27C66.12,30.71,65.88,30.71,65.78,30.55z M77.56,31.67l-5.34,9.27c-0.05,0.09-0.14,0.13-0.22,0.13s-0.17-0.04-0.22-0.13
					l-5.34-9.27c-0.1-0.16,0.02-0.37,0.21-0.37h10.7C77.54,31.3,77.66,31.51,77.56,31.67z M77.35,31.05h-10.7
					c-0.19,0-0.31-0.21-0.21-0.38l5.34-9.26c0.05-0.08,0.14-0.12,0.22-0.12s0.17,0.04,0.22,0.12l5.34,9.26
					C77.66,30.84,77.54,31.05,77.35,31.05z M77.78,30.55l-5.34-9.27c-0.1-0.16,0.02-0.37,0.21-0.37h10.7c0.19,0,0.31,0.21,0.21,0.37
					l-5.34,9.27C78.12,30.71,77.88,30.71,77.78,30.55z M89.56,31.67l-5.34,9.27c-0.1,0.17-0.34,0.17-0.44,0l-5.34-9.27
					c-0.01-0.02-0.02-0.04-0.03-0.06c-0.04-0.15,0.07-0.31,0.24-0.31h10.7C89.54,31.3,89.66,31.51,89.56,31.67z M18.14,9.65
					c-0.1,0.16-0.33,0.16-0.43-0.01l-5.2-9.02c-0.1-0.16,0.02-0.37,0.21-0.37h-1.44c0.19,0,0.31,0.21,0.21,0.38L6.22,9.77
					c-0.1,0.16-0.34,0.16-0.44,0L0.51,0.63c-0.1-0.17,0.02-0.38,0.21-0.38H0V0.5c0.08,0,0.17,0.04,0.22,0.13L5.56,9.9
					c0.1,0.16-0.02,0.37-0.21,0.37H0v0.25h5.35c0.19,0,0.31,0.21,0.21,0.38l-5.34,9.26C0.17,20.24,0.08,20.28,0,20.28v1.01
					c0.08,0,0.17,0.04,0.22,0.12l5.34,9.26c0.1,0.17-0.02,0.38-0.21,0.38H0v0.25h5.21c0.17,0,0.28,0.16,0.24,0.31l0.7-1.19
					c-0.1,0.17-0.34,0.17-0.44,0l-5.27-9.13c-0.1-0.17,0.02-0.38,0.21-0.38h10.56c0.19,0,0.31,0.21,0.21,0.38l0.71-1.23
					c-0.11,0.14-0.33,0.13-0.42-0.02L6.44,10.9c-0.1-0.17,0.02-0.38,0.21-0.38h10.56c0.17,0,0.28,0.16,0.24,0.32L18.14,9.65z
					 M6.22,11.02l5.34,9.27c0.1,0.16-0.02,0.37-0.21,0.37H0.65c-0.19,0-0.31-0.21-0.21-0.37l5.34-9.27
					C5.88,10.86,6.12,10.86,6.22,11.02z M17.35,10.27H6.65c-0.19,0-0.31-0.21-0.21-0.37l5.34-9.27c0.1-0.16,0.34-0.16,0.44,0l5.34,9.27
					C17.66,10.06,17.54,10.27,17.35,10.27z M78.55,10.84c-0.04-0.16,0.07-0.32,0.24-0.32h10.56c0.19,0,0.31,0.21,0.21,0.38l-5.27,9.14
					c-0.09,0.15-0.31,0.16-0.42,0.02l0.71,1.23c-0.1-0.17,0.02-0.38,0.21-0.38h10.56c0.19,0,0.31,0.21,0.21,0.38l-5.27,9.13
					c-0.1,0.17-0.34,0.17-0.44,0l0.7,1.19c-0.04-0.15,0.07-0.31,0.24-0.31H96v-0.25h-5.35c-0.19,0-0.31-0.21-0.21-0.38l5.34-9.26
					c0.05-0.08,0.14-0.12,0.22-0.12v-1.01c-0.08,0-0.17-0.04-0.22-0.12l-5.34-9.26c-0.1-0.17,0.02-0.38,0.21-0.38H96v-0.25h-5.35
					c-0.19,0-0.31-0.21-0.21-0.37l5.34-9.27C95.83,0.54,95.92,0.5,96,0.5V0.25h-0.72c0.19,0,0.31,0.21,0.21,0.38l-5.27,9.14
					c-0.1,0.16-0.34,0.16-0.44,0l-5.27-9.14c-0.1-0.17,0.02-0.38,0.21-0.38h-1.44c0.19,0,0.31,0.21,0.21,0.37l-5.2,9.02
					c-0.1,0.17-0.33,0.17-0.43,0.01L78.55,10.84z M90.22,11.02l5.34,9.27c0.1,0.16-0.02,0.37-0.21,0.37h-10.7
					c-0.19,0-0.31-0.21-0.21-0.37l5.34-9.27C89.88,10.86,90.12,10.86,90.22,11.02z M78.44,9.9l5.34-9.27c0.1-0.16,0.34-0.16,0.44,0
					l5.34,9.27c0.1,0.16-0.02,0.37-0.21,0.37h-10.7C78.46,10.27,78.34,10.06,78.44,9.9z"/>
				 <path class="Large_Outline" d="M72.87,0.25H96V0H0v0.25h23.13c0.2,0,0.32,0.21,0.22,0.38L0.22,40.69C0.17,40.77,0.08,40.82,0,40.82
			 		v1.5c0.08,0,0.17,0.05,0.22,0.13l23.13,40.06c0.1,0.17-0.02,0.38-0.22,0.38H0v0.25h96v-0.25H72.87c-0.2,0-0.32-0.21-0.22-0.38
			 		l23.13-40.06c0.05-0.08,0.14-0.13,0.22-0.13v-1.5c-0.08,0-0.17-0.05-0.22-0.13L72.65,0.63C72.55,0.46,72.67,0.25,72.87,0.25z
			 		 M71.13,0.25c0.2,0,0.32,0.21,0.22,0.38L48.22,40.69c-0.1,0.17-0.34,0.17-0.44,0L24.65,0.63c-0.1-0.17,0.02-0.38,0.22-0.38H71.13z
			 		 M0.62,41C0.63,40.98,23.78,0.88,23.78,0.88l0.01-0.01c0.1-0.16,0.32-0.16,0.42,0l0.01,0.01L47.38,41
			 		c0.04,0.16-0.07,0.32-0.25,0.32H0.87C0.69,41.32,0.58,41.16,0.62,41z M24.21,82.27c-0.1,0.16-0.32,0.16-0.42,0l-0.01-0.01
			 		c0,0-23.15-40.1-23.16-40.12c-0.04-0.16,0.07-0.32,0.25-0.32h46.26c0.18,0,0.29,0.16,0.25,0.32L24.22,82.26L24.21,82.27z
			 		 M71.13,82.89H24.87c-0.2,0-0.32-0.21-0.22-0.38l23.13-40.06c0.1-0.17,0.34-0.17,0.44,0l23.13,40.06
			 		C71.45,82.68,71.33,82.89,71.13,82.89z M95.38,42.14L72.22,82.26l-0.01,0.01c-0.1,0.16-0.32,0.16-0.42,0l-0.01-0.01
			 		c0,0-23.15-40.1-23.16-40.12c-0.04-0.16,0.07-0.32,0.25-0.32h46.26C95.31,41.82,95.42,41.98,95.38,42.14z M95.38,41
			 		c0.04,0.16-0.07,0.32-0.25,0.32H48.87c-0.18,0-0.29-0.16-0.25-0.32c0.01-0.02,23.16-40.12,23.16-40.12l0.01-0.01
			 		c0.1-0.16,0.32-0.16,0.42,0l0.01,0.01L95.38,41z"/>
			</g>
			<g class="Triangles">
				<path d="M52.99,51.59H43c-0.1,0-0.16-0.1-0.11-0.19l4.99-8.65c0.05-0.08,0.17-0.08,0.22,0l4.99,8.65
					C53.15,51.49,53.09,51.59,52.99,51.59z"/>
				<path d="M35.06,82.64h-9.99c-0.1,0-0.16-0.1-0.11-0.19l4.99-8.65c0.05-0.08,0.17-0.08,0.22,0l4.99,8.65
					C35.22,82.54,35.16,82.64,35.06,82.64z"/>
				<path d="M41.24,73.31l-5.13,8.89c-0.05,0.08-0.17,0.08-0.22,0l-5.13-8.89c-0.05-0.08,0.01-0.19,0.11-0.19h10.27
					C41.23,73.12,41.29,73.22,41.24,73.31z"/>
				<path d="M41.13,72.37H31.01c-0.1,0-0.16-0.1-0.11-0.19l5.06-8.77c0.05-0.08,0.17-0.08,0.22,0l5.06,8.77
					C41.29,72.27,41.23,72.37,41.13,72.37z"/>
				<path d="M47.06,82.64H36.94c-0.1,0-0.16-0.1-0.11-0.19l5.06-8.77c0.05-0.08,0.17-0.08,0.22,0l5.06,8.77
					C47.22,82.54,47.16,82.64,47.06,82.64z"/>
				<path d="M47.24,62.92l-5.13,8.89c-0.05,0.08-0.17,0.08-0.22,0l-5.13-8.89c-0.05-0.08,0.01-0.19,0.11-0.19h10.27
					C47.23,62.73,47.29,62.83,47.24,62.92z"/>
				<path d="M47.13,61.98H37.01c-0.1,0-0.16-0.1-0.11-0.19l5.06-8.77c0.05-0.08,0.17-0.08,0.22,0l5.06,8.77
					C47.29,61.88,47.23,61.98,47.13,61.98z"/>
				<path d="M53.24,73.31l-5.13,8.89c-0.05,0.08-0.17,0.08-0.22,0l-5.13-8.89c-0.05-0.08,0.01-0.19,0.11-0.19h10.27
					C53.23,73.12,53.29,73.22,53.24,73.31z"/>
				<path d="M53.13,72.37H42.87c-0.1,0-0.16-0.1-0.11-0.19l5.13-8.89c0.05-0.08,0.17-0.08,0.22,0l5.13,8.89
					C53.29,72.27,53.23,72.37,53.13,72.37z"/>
				<path d="M53.24,52.53l-5.13,8.89c-0.05,0.08-0.17,0.08-0.22,0l-5.13-8.89c-0.05-0.08,0.01-0.19,0.11-0.19h10.27
					C53.23,52.34,53.29,52.44,53.24,52.53z"/>
				<path d="M58.99,61.98H48.87c-0.1,0-0.16-0.1-0.11-0.19l5.06-8.77c0.05-0.08,0.17-0.08,0.22,0l5.06,8.77
					C59.15,61.88,59.09,61.98,58.99,61.98z"/>
				<path d="M59.06,82.64H48.94c-0.1,0-0.16-0.1-0.11-0.19l5.06-8.77c0.05-0.08,0.17-0.08,0.22,0l5.06,8.77
					C59.22,82.54,59.16,82.64,59.06,82.64z"/>
				<path d="M59.24,62.92l-5.13,8.89c-0.05,0.08-0.17,0.08-0.22,0l-5.13-8.89c-0.05-0.08,0.01-0.19,0.11-0.19h10.27
					C59.23,62.73,59.29,62.83,59.24,62.92z"/>
				<path d="M64.99,72.37H54.87c-0.1,0-0.16-0.1-0.11-0.19l5.06-8.77c0.05-0.08,0.17-0.08,0.22,0l5.06,8.77
					C65.15,72.27,65.09,72.37,64.99,72.37z"/>
				<path d="M65.24,73.31l-5.13,8.89c-0.05,0.08-0.17,0.08-0.22,0l-5.12-8.89c-0.05-0.08,0.01-0.19,0.11-0.19h10.26
					C65.23,73.12,65.29,73.22,65.24,73.31z"/>
				<path d="M70.92,82.64h-9.99c-0.1,0-0.16-0.1-0.11-0.19l4.99-8.65c0.05-0.08,0.17-0.08,0.22,0l4.99,8.65
					C71.08,82.54,71.02,82.64,70.92,82.64z"/>
				<path d="M59.17,42.26l-4.99,8.65c-0.05,0.08-0.17,0.08-0.22,0l-4.99-8.65c-0.05-0.08,0.01-0.19,0.11-0.19h9.98
					C59.16,42.07,59.22,42.17,59.17,42.26z"/>
				<path d="M77.1,73.31l-4.99,8.65c-0.05,0.08-0.17,0.08-0.22,0l-4.99-8.65c-0.05-0.08,0.01-0.19,0.11-0.19h9.98
					C77.09,73.12,77.15,73.23,77.1,73.31z"/>
				<path d="M72.11,63.29l5.13,8.89c0.05,0.08-0.01,0.19-0.11,0.19H66.87c-0.1,0-0.16-0.1-0.11-0.19l5.13-8.89
					C71.94,63.21,72.06,63.21,72.11,63.29z"/>
				<path d="M71.24,62.92l-5.06,8.77c-0.05,0.08-0.17,0.08-0.22,0l-5.06-8.77c-0.05-0.08,0.01-0.19,0.11-0.19h10.12
					C71.23,62.73,71.29,62.83,71.24,62.92z"/>
				<path d="M83.1,62.92l-5.06,8.77c-0.05,0.08-0.17,0.08-0.22,0l-5.06-8.77c-0.05-0.08,0.01-0.19,0.11-0.19h10.12
					C83.09,62.73,83.15,62.83,83.1,62.92z"/>
				<path d="M66.11,52.9l5.13,8.89c0.05,0.08-0.01,0.19-0.11,0.19H60.87c-0.1,0-0.16-0.1-0.11-0.19l5.13-8.89
					C65.94,52.82,66.06,52.82,66.11,52.9z"/>
				<path d="M65.24,52.53l-5.06,8.77c-0.05,0.08-0.17,0.08-0.22,0l-5.06-8.77c-0.05-0.08,0.01-0.19,0.11-0.19h10.12
					C65.23,52.34,65.29,52.44,65.24,52.53z"/>
				<path d="M78.11,52.9l5.14,8.89c0.05,0.08-0.01,0.19-0.11,0.19H72.87c-0.1,0-0.16-0.1-0.11-0.19l5.13-8.89
					C77.94,52.82,78.06,52.82,78.11,52.9z"/>
				<path d="M77.24,52.52l-5.13,8.89c-0.05,0.08-0.17,0.08-0.22,0l-5.13-8.89c-0.05-0.08,0.01-0.19,0.11-0.19h10.26
					C77.23,52.34,77.29,52.44,77.24,52.52z"/>
				<path d="M60.11,42.51l5.13,8.89c0.05,0.08-0.01,0.19-0.11,0.19H54.87c-0.1,0-0.16-0.1-0.11-0.19l5.13-8.89
					C59.94,42.43,60.06,42.43,60.11,42.51z"/>
				<path d="M71.17,42.25l-5.06,8.77c-0.05,0.08-0.17,0.08-0.22,0l-5.06-8.77c-0.05-0.08,0.01-0.19,0.11-0.19h10.12
					C71.16,42.07,71.22,42.17,71.17,42.25z"/>
				<path d="M89.1,52.52l-5.06,8.77c-0.05,0.08-0.17,0.08-0.22,0l-5.06-8.77c-0.05-0.08,0.01-0.19,0.11-0.19h10.12
					C89.09,52.34,89.15,52.44,89.1,52.52z"/>
				<path d="M72.11,42.51l5.13,8.89c0.05,0.08-0.01,0.19-0.11,0.19H66.87c-0.1,0-0.16-0.1-0.11-0.19l5.13-8.89
					C71.94,42.42,72.06,42.42,72.11,42.51z"/>
				<path d="M83.17,42.25l-5.06,8.77c-0.05,0.08-0.17,0.08-0.22,0l-5.06-8.77c-0.05-0.08,0.01-0.19,0.11-0.19h10.12
					C83.16,42.07,83.22,42.17,83.17,42.25z"/>
				<path d="M84.11,42.51l5.14,8.89c0.05,0.08-0.01,0.19-0.11,0.19l-10.27-0.01c-0.1,0-0.16-0.1-0.11-0.19l5.13-8.88
					C83.94,42.42,84.06,42.42,84.11,42.51z"/>
				<path d="M95.03,42.25l-4.99,8.65c-0.05,0.08-0.17,0.08-0.22,0l-4.99-8.65c-0.05-0.08,0.01-0.19,0.11-0.19h9.98
					C95.02,42.07,95.08,42.17,95.03,42.25z"/>
				<path d="M54.18,32.24l4.99,8.65c0.05,0.08-0.01,0.19-0.11,0.19h-9.98c-0.1,0-0.16-0.1-0.11-0.19l4.99-8.65
					C54.01,32.15,54.13,32.15,54.18,32.24z"/>
				<path d="M90.04,32.24l4.99,8.65c0.05,0.08-0.01,0.19-0.11,0.19h-9.98c-0.1,0-0.16-0.1-0.11-0.19l4.99-8.65
					C89.87,32.16,89.99,32.16,90.04,32.24z"/>
				<path d="M78.86,31.55h10.26c0.1,0,0.16,0.1,0.11,0.19l-5.13,8.89c-0.05,0.08-0.17,0.08-0.22,0l-5.13-8.89
					C78.71,31.66,78.77,31.55,78.86,31.55z"/>
				<path d="M78.11,32.12l5.06,8.77c0.05,0.08-0.01,0.19-0.11,0.19H72.94c-0.1,0-0.16-0.1-0.11-0.19l5.06-8.77
					C77.94,32.03,78.06,32.03,78.11,32.12z"/>
				<path d="M84.04,21.85l5.06,8.77c0.05,0.08-0.01,0.19-0.11,0.19H78.87c-0.1,0-0.16-0.1-0.11-0.19l5.06-8.77
					C83.87,21.76,83.99,21.76,84.04,21.85z"/>
				<path d="M66.87,31.55h10.26c0.1,0,0.16,0.1,0.11,0.19l-5.13,8.89c-0.05,0.08-0.17,0.08-0.22,0l-5.13-8.89
					C66.71,31.66,66.77,31.55,66.87,31.55z"/>
				<path d="M66.11,32.12l5.06,8.77c0.05,0.08-0.01,0.19-0.11,0.19H60.94c-0.1,0-0.16-0.1-0.11-0.19l5.06-8.77
					C65.94,32.03,66.06,32.03,66.11,32.12z"/>
				<path d="M72.86,21.16h10.27c0.1,0,0.16,0.1,0.11,0.19l-5.14,8.89c-0.05,0.08-0.17,0.08-0.22,0l-5.13-8.89
					C72.71,21.27,72.77,21.16,72.86,21.16z"/>
				<path d="M72.11,21.72l5.13,8.89c0.05,0.08-0.01,0.19-0.11,0.19H66.87c-0.1,0-0.16-0.1-0.11-0.19l5.13-8.89
					C71.94,21.64,72.06,21.64,72.11,21.72z"/>
				<path d="M54.87,31.55h10.26c0.1,0,0.16,0.1,0.11,0.19l-5.13,8.89c-0.05,0.08-0.17,0.08-0.22,0l-5.13-8.89
					C54.71,31.66,54.77,31.55,54.87,31.55z"/>
				<path d="M60.18,21.84l5.06,8.77c0.05,0.08-0.01,0.19-0.11,0.19H55.01c-0.1,0-0.16-0.1-0.11-0.19l5.06-8.77
					C60.01,21.76,60.13,21.76,60.18,21.84z"/>
				<path d="M78.04,11.45l5.06,8.77c0.05,0.08-0.01,0.19-0.11,0.19H72.87c-0.1,0-0.16-0.1-0.11-0.19l5.06-8.77
					C77.87,11.37,77.99,11.37,78.04,11.45z"/>
				<path d="M60.87,21.16h10.26c0.1,0,0.16,0.1,0.11,0.19l-5.13,8.89c-0.05,0.08-0.17,0.08-0.22,0l-5.13-8.89
					C60.71,21.26,60.77,21.16,60.87,21.16z"/>
				<path d="M66.18,11.45l5.06,8.77c0.05,0.08-0.01,0.19-0.11,0.19H61.01c-0.1,0-0.16-0.1-0.11-0.19l5.06-8.77
					C66.01,11.37,66.13,11.37,66.18,11.45z"/>
				<path d="M66.86,10.77h10.27c0.1,0,0.16,0.1,0.11,0.19l-5.14,8.88c-0.05,0.08-0.17,0.08-0.22,0l-5.13-8.88
					C66.71,10.87,66.77,10.77,66.86,10.77z"/>
				<path d="M72.11,1.18l4.99,8.65c0.05,0.08-0.01,0.19-0.11,0.19h-9.98c-0.1,0-0.16-0.1-0.11-0.19l4.99-8.65
					C71.94,1.1,72.06,1.1,72.11,1.18z"/>
				<path d="M83.17,0.69l-4.99,8.65c-0.05,0.08-0.17,0.08-0.22,0l-4.99-8.65C72.93,0.6,72.99,0.5,73.08,0.5h9.98
					C83.16,0.5,83.22,0.6,83.17,0.69z"/>
				<path d="M101.1,31.74l-4.99,8.65c-0.05,0.08-0.17,0.08-0.22,0l-4.99-8.65c-0.05-0.08,0.01-0.19,0.11-0.19h9.98
					C101.09,31.55,101.15,31.66,101.1,31.74z"/>
				<path d="M95.24,21.35l-5.06,8.77c-0.05,0.08-0.17,0.08-0.22,0l-5.06-8.77c-0.05-0.08,0.01-0.19,0.11-0.19h10.12
					C95.23,21.16,95.29,21.26,95.24,21.35z"/>
				<path d="M90.11,11.33l5.13,8.89c0.05,0.08-0.01,0.19-0.11,0.19H84.87c-0.1,0-0.16-0.1-0.11-0.19l5.13-8.89
					C89.94,11.25,90.06,11.25,90.11,11.33z"/>
				<path d="M89.24,10.96l-5.06,8.77c-0.05,0.08-0.17,0.08-0.22,0l-5.06-8.77c-0.05-0.08,0.01-0.19,0.11-0.19h10.12
					C89.23,10.77,89.29,10.87,89.24,10.96z"/>
				<path d="M101.24,10.96l-5.13,8.89c-0.05,0.08-0.17,0.08-0.22,0l-5.13-8.89c-0.05-0.08,0.01-0.19,0.11-0.19h10.26
					C101.23,10.77,101.29,10.87,101.24,10.96z"/>
				<path d="M84.11,0.94l5.13,8.89c0.05,0.08-0.01,0.19-0.11,0.19H78.87c-0.1,0-0.16-0.1-0.11-0.19l5.13-8.89
					C83.94,0.86,84.06,0.86,84.11,0.94z"/>
				<path d="M95.17,0.69l-5.06,8.77c-0.05,0.08-0.17,0.08-0.22,0l-5.06-8.77C84.79,0.6,84.85,0.5,84.94,0.5h10.12
					C95.16,0.5,95.22,0.6,95.17,0.69z"/>
				<path d="M83.17,82.45l-4.99-8.65c-0.05-0.08-0.17-0.08-0.22,0l-4.99,8.65c-0.05,0.08,0.01,0.19,0.11,0.19h9.98
					C83.16,82.64,83.22,82.54,83.17,82.45z"/>
				<path d="M96.11,61.42l5.13-8.89c0.05-0.08-0.01-0.19-0.11-0.19H90.87c-0.1,0-0.16,0.1-0.11,0.19l5.13,8.89
					C95.94,61.5,96.06,61.5,96.11,61.42z"/>
				<path d="M95.24,61.79l-5.06-8.77c-0.05-0.08-0.17-0.08-0.22,0l-5.06,8.77c-0.05,0.08,0.01,0.19,0.11,0.19h10.12
					C95.23,61.98,95.29,61.88,95.24,61.79z"/>
				<path d="M90.11,71.81l5.13-8.89c0.05-0.08-0.01-0.19-0.11-0.19H84.87c-0.1,0-0.16,0.1-0.11,0.19l5.13,8.89
					C89.94,71.89,90.06,71.89,90.11,71.81z"/>
				<path d="M89.24,72.18l-5.06-8.77c-0.05-0.08-0.17-0.08-0.22,0l-5.06,8.77c-0.05,0.08,0.01,0.19,0.11,0.19h10.12
					C89.23,72.37,89.29,72.27,89.24,72.18z"/>
				<path d="M84.11,82.2l5.13-8.89c0.05-0.08-0.01-0.19-0.11-0.19H78.87c-0.1,0-0.16,0.1-0.11,0.19l5.13,8.89
					C83.94,82.28,84.06,82.28,84.11,82.2z"/>
				<path d="M95.17,82.45l-5.06-8.77c-0.05-0.08-0.17-0.08-0.22,0l-5.06,8.77c-0.05,0.08,0.01,0.19,0.11,0.19h10.12
					C95.16,82.64,95.22,82.54,95.17,82.45z"/>
				<path d="M96.11,82.2l5.13-8.89c0.05-0.08-0.01-0.19-0.11-0.19H90.87c-0.1,0-0.16,0.1-0.11,0.19l5.13,8.89
					C95.94,82.28,96.06,82.28,96.11,82.2z"/>
				<path d="M12.83,0.69l4.99,8.65c0.05,0.08,0.17,0.08,0.22,0l4.99-8.65c0.05-0.08-0.01-0.19-0.11-0.19h-9.98
					C12.84,0.5,12.78,0.6,12.83,0.69z"/>
				<path d="M-0.11,21.72l-5.13,8.89c-0.05,0.08,0.01,0.19,0.11,0.19H5.13c0.1,0,0.16-0.1,0.11-0.19l-5.13-8.89
					C0.06,21.64-0.06,21.64-0.11,21.72z"/>
				<path d="M0.76,21.35l5.06,8.77c0.05,0.08,0.17,0.08,0.22,0l5.06-8.77c0.05-0.08-0.01-0.19-0.11-0.19H0.87
					C0.77,21.16,0.71,21.26,0.76,21.35z"/>
				<path d="M5.89,11.33l-5.13,8.89c-0.05,0.08,0.01,0.19,0.11,0.19h10.26c0.1,0,0.16-0.1,0.11-0.19l-5.13-8.89
					C6.06,11.25,5.94,11.25,5.89,11.33z"/>
				<path d="M6.76,10.96l5.06,8.77c0.05,0.08,0.17,0.08,0.22,0l5.06-8.77c0.05-0.08-0.01-0.19-0.11-0.19H6.87
					C6.77,10.77,6.71,10.87,6.76,10.96z"/>
				<path d="M11.89,0.94L6.76,9.83c-0.05,0.08,0.01,0.19,0.11,0.19h10.26c0.1,0,0.16-0.1,0.11-0.19l-5.13-8.89
					C12.06,0.86,11.94,0.86,11.89,0.94z"/>
				<path d="M0.83,0.69l5.06,8.77c0.05,0.08,0.17,0.08,0.22,0l5.06-8.77c0.05-0.08-0.01-0.19-0.11-0.19H0.94
					C0.84,0.5,0.78,0.6,0.83,0.69z"/>
				<path d="M-0.11,0.94l-5.13,8.89c-0.05,0.08,0.01,0.19,0.11,0.19H5.13c0.1,0,0.16-0.1,0.11-0.19L0.11,0.94
					C0.06,0.86-0.06,0.86-0.11,0.94z"/>
				<path d="M12.83,82.45l4.99-8.65c0.05-0.08,0.17-0.08,0.22,0l4.99,8.65c0.05,0.08-0.01,0.19-0.11,0.19h-9.98
					C12.84,82.64,12.78,82.54,12.83,82.45z"/>
				<path d="M-5.1,51.4l4.99-8.65c0.05-0.08,0.17-0.08,0.22,0L5.1,51.4c0.05,0.08-0.01,0.19-0.11,0.19h-9.98
					C-5.09,51.59-5.15,51.48-5.1,51.4z"/>
				<path d="M0.76,61.79l5.06-8.77c0.05-0.08,0.17-0.08,0.22,0l5.06,8.77c0.05,0.08-0.01,0.19-0.11,0.19H0.87
					C0.77,61.98,0.71,61.88,0.76,61.79z"/>
				<path d="M5.89,71.81l-5.13-8.89c-0.05-0.08,0.01-0.19,0.11-0.19h10.26c0.1,0,0.16,0.1,0.11,0.19l-5.13,8.89
					C6.06,71.89,5.94,71.89,5.89,71.81z"/>
				<path d="M6.76,72.18l5.06-8.77c0.05-0.08,0.17-0.08,0.22,0l5.06,8.77c0.05,0.08-0.01,0.19-0.11,0.19H6.87
					C6.77,72.37,6.71,72.27,6.76,72.18z"/>
				<path d="M-5.24,72.18l5.13-8.89c0.05-0.08,0.17-0.08,0.22,0l5.13,8.89c0.05,0.08-0.01,0.19-0.11,0.19H-5.13
					C-5.23,72.37-5.29,72.27-5.24,72.18z"/>
				<path d="M11.89,82.2l-5.13-8.89c-0.05-0.08,0.01-0.19,0.11-0.19h10.26c0.1,0,0.16,0.1,0.11,0.19l-5.13,8.89
					C12.06,82.28,11.94,82.28,11.89,82.2z"/>
				<path d="M0.83,82.45l5.06-8.77c0.05-0.08,0.17-0.08,0.22,0l5.06,8.77c0.05,0.08-0.01,0.19-0.11,0.19H0.94
					C0.84,82.64,0.78,82.54,0.83,82.45z"/>
				<path d="M43.01,31.55H53c0.1,0,0.16,0.1,0.11,0.19l-4.99,8.65c-0.05,0.08-0.17,0.08-0.22,0l-4.99-8.65
					C42.85,31.65,42.91,31.55,43.01,31.55z"/>
				<path d="M60.94,0.5h9.99c0.1,0,0.16,0.1,0.11,0.19l-4.99,8.65c-0.05,0.08-0.17,0.08-0.22,0l-4.99-8.65
					C60.78,0.6,60.84,0.5,60.94,0.5z"/>
				<path d="M54.76,9.83l5.13-8.89c0.05-0.08,0.17-0.08,0.22,0l5.13,8.89c0.05,0.08-0.01,0.19-0.11,0.19H54.87
					C54.77,10.02,54.71,9.92,54.76,9.83z"/>
				<path d="M54.87,10.77H65c0.1,0,0.16,0.1,0.11,0.19l-5.06,8.77c-0.05,0.08-0.17,0.08-0.22,0l-5.06-8.77
					C54.71,10.87,54.77,10.77,54.87,10.77z"/>
				<path d="M48.94,0.5h10.13c0.1,0,0.16,0.1,0.11,0.19l-5.06,8.77c-0.05,0.08-0.17,0.08-0.22,0l-5.06-8.77
					C48.78,0.6,48.84,0.5,48.94,0.5z"/>
				<path d="M48.76,20.22l5.13-8.89c0.05-0.08,0.17-0.08,0.22,0l5.13,8.89c0.05,0.08-0.01,0.19-0.11,0.19H48.87
					C48.77,20.41,48.71,20.31,48.76,20.22z"/>
				<path d="M48.87,21.16H59c0.1,0,0.16,0.1,0.11,0.19l-5.06,8.77c-0.05,0.08-0.17,0.08-0.22,0l-5.06-8.77
					C48.71,21.26,48.77,21.16,48.87,21.16z"/>
				<path d="M42.76,9.83l5.13-8.89c0.05-0.08,0.17-0.08,0.22,0l5.13,8.89c0.05,0.08-0.01,0.19-0.11,0.19H42.87
					C42.77,10.02,42.71,9.92,42.76,9.83z"/>
				<path d="M42.87,10.77h10.27c0.1,0,0.16,0.1,0.11,0.19l-5.13,8.89c-0.05,0.08-0.17,0.08-0.22,0l-5.13-8.89
					C42.71,10.87,42.77,10.77,42.87,10.77z"/>
				<path d="M42.76,30.61l5.13-8.89c0.05-0.08,0.17-0.08,0.22,0l5.13,8.89c0.05,0.08-0.01,0.19-0.11,0.19H42.87
					C42.77,30.8,42.71,30.7,42.76,30.61z"/>
				<path d="M37.01,21.16h10.13c0.1,0,0.16,0.1,0.11,0.19l-5.06,8.77c-0.05,0.08-0.17,0.08-0.22,0l-5.06-8.77
					C36.85,21.26,36.91,21.16,37.01,21.16z"/>
				<path d="M36.94,0.5h10.13c0.1,0,0.16,0.1,0.11,0.19l-5.06,8.77c-0.05,0.08-0.17,0.08-0.22,0l-5.06-8.77
					C36.78,0.6,36.84,0.5,36.94,0.5z"/>
				<path d="M36.76,20.22l5.13-8.89c0.05-0.08,0.17-0.08,0.22,0l5.13,8.89c0.05,0.08-0.01,0.19-0.11,0.19H36.87
					C36.77,20.41,36.71,20.31,36.76,20.22z"/>
				<path d="M31.01,10.77h10.13c0.1,0,0.16,0.1,0.11,0.19l-5.06,8.77c-0.05,0.08-0.17,0.08-0.22,0l-5.06-8.77
					C30.85,10.87,30.91,10.77,31.01,10.77z"/>
				<path d="M30.76,9.83l5.13-8.89c0.05-0.08,0.17-0.08,0.22,0l5.12,8.89c0.05,0.08-0.01,0.19-0.11,0.19H30.87
					C30.77,10.02,30.71,9.92,30.76,9.83z"/>
				<path d="M25.08,0.5h9.99c0.1,0,0.16,0.1,0.11,0.19l-4.99,8.65c-0.05,0.08-0.17,0.08-0.22,0l-4.99-8.65
					C24.92,0.6,24.98,0.5,25.08,0.5z"/>
				<path d="M36.83,40.88l4.99-8.65c0.05-0.08,0.17-0.08,0.22,0l4.99,8.65c0.05,0.08-0.01,0.19-0.11,0.19h-9.98
					C36.84,41.07,36.78,40.97,36.83,40.88z"/>
				<path d="M18.9,9.83l4.99-8.65c0.05-0.08,0.17-0.08,0.22,0l4.99,8.65c0.05,0.08-0.01,0.19-0.11,0.19h-9.98
					C18.91,10.02,18.85,9.91,18.9,9.83z"/>
				<path d="M23.89,19.85l-5.13-8.89c-0.05-0.08,0.01-0.19,0.11-0.19h10.26c0.1,0,0.16,0.1,0.11,0.19l-5.13,8.89
					C24.06,19.93,23.94,19.93,23.89,19.85z"/>
				<path d="M24.76,20.22l5.06-8.77c0.05-0.08,0.17-0.08,0.22,0l5.06,8.77c0.05,0.08-0.01,0.19-0.11,0.19H24.87
					C24.77,20.41,24.71,20.31,24.76,20.22z"/>
				<path d="M12.9,20.22l5.06-8.77c0.05-0.08,0.17-0.08,0.22,0l5.06,8.77c0.05,0.08-0.01,0.19-0.11,0.19H13.01
					C12.91,20.41,12.85,20.31,12.9,20.22z"/>
				<path d="M29.89,30.24l-5.13-8.89c-0.05-0.08,0.01-0.19,0.11-0.19h10.26c0.1,0,0.16,0.1,0.11,0.19l-5.13,8.89
					C30.06,30.32,29.94,30.32,29.89,30.24z"/>
				<path d="M30.76,30.61l5.06-8.77c0.05-0.08,0.17-0.08,0.22,0l5.06,8.77c0.05,0.08-0.01,0.19-0.11,0.19H30.87
					C30.77,30.8,30.71,30.7,30.76,30.61z"/>
				<path d="M17.89,30.24l-5.14-8.89c-0.05-0.08,0.01-0.19,0.11-0.19h10.27c0.1,0,0.16,0.1,0.11,0.19l-5.13,8.89
					C18.06,30.32,17.94,30.32,17.89,30.24z"/>
				<path d="M18.76,30.62l5.13-8.89c0.05-0.08,0.17-0.08,0.22,0l5.13,8.89c0.05,0.08-0.01,0.19-0.11,0.19H18.87
					C18.77,30.8,18.71,30.7,18.76,30.62z"/>
				<path d="M35.89,40.63l-5.13-8.89c-0.05-0.08,0.01-0.19,0.11-0.19h10.26c0.1,0,0.16,0.1,0.11,0.19l-5.13,8.89
					C36.06,40.71,35.94,40.71,35.89,40.63z"/>
				<path d="M24.83,40.89l5.06-8.77c0.05-0.08,0.17-0.08,0.22,0l5.06,8.77c0.05,0.08-0.01,0.19-0.11,0.19H24.94
					C24.84,41.07,24.78,40.97,24.83,40.89z"/>
				<path d="M6.9,30.62l5.06-8.77c0.05-0.08,0.17-0.08,0.22,0l5.06,8.77c0.05,0.08-0.01,0.19-0.11,0.19H7.01
					C6.91,30.8,6.85,30.7,6.9,30.62z"/>
				<path d="M23.89,40.63l-5.13-8.89c-0.05-0.08,0.01-0.19,0.11-0.19h10.26c0.1,0,0.16,0.1,0.11,0.19l-5.13,8.89
					C24.06,40.72,23.94,40.72,23.89,40.63z"/>
				<path d="M12.83,40.89l5.06-8.77c0.05-0.08,0.17-0.08,0.22,0l5.06,8.77c0.05,0.08-0.01,0.19-0.11,0.19H12.94
					C12.84,41.07,12.78,40.97,12.83,40.89z"/>
				<path d="M11.89,40.63l-5.14-8.89c-0.05-0.08,0.01-0.19,0.11-0.19l10.27,0.01c0.1,0,0.16,0.1,0.11,0.19l-5.13,8.88
					C12.06,40.72,11.94,40.72,11.89,40.63z"/>
				<path d="M0.97,40.89l4.99-8.65c0.05-0.08,0.17-0.08,0.22,0l4.99,8.65c0.05,0.08-0.01,0.19-0.11,0.19H1.08
					C0.98,41.07,0.92,40.97,0.97,40.89z"/>
				<path d="M41.82,50.9l-4.99-8.65c-0.05-0.08,0.01-0.19,0.11-0.19h9.98c0.1,0,0.16,0.1,0.11,0.19l-4.99,8.65
					C41.99,50.99,41.87,50.99,41.82,50.9z"/>
				<path d="M5.96,50.9l-4.99-8.65c-0.05-0.08,0.01-0.19,0.11-0.19h9.98c0.1,0,0.16,0.1,0.11,0.19L6.18,50.9
					C6.13,50.98,6.01,50.98,5.96,50.9z"/>
				<path d="M17.14,51.59H6.88c-0.1,0-0.16-0.1-0.11-0.19l5.13-8.89c0.05-0.08,0.17-0.08,0.22,0l5.13,8.89
					C17.29,51.48,17.23,51.59,17.14,51.59z"/>
				<path d="M17.89,51.02l-5.06-8.77c-0.05-0.08,0.01-0.19,0.11-0.19h10.12c0.1,0,0.16,0.1,0.11,0.19l-5.06,8.77
					C18.06,51.11,17.94,51.11,17.89,51.02z"/>
				<path d="M11.96,61.29L6.9,52.52c-0.05-0.08,0.01-0.19,0.11-0.19h10.12c0.1,0,0.16,0.1,0.11,0.19l-5.06,8.77
					C12.13,61.38,12.01,61.38,11.96,61.29z"/>
				<path d="M29.13,51.59H18.87c-0.1,0-0.16-0.1-0.11-0.19l5.13-8.89c0.05-0.08,0.17-0.08,0.22,0l5.13,8.89
					C29.29,51.48,29.23,51.59,29.13,51.59z"/>
				<path d="M29.89,51.02l-5.06-8.77c-0.05-0.08,0.01-0.19,0.11-0.19h10.12c0.1,0,0.16,0.1,0.11,0.19l-5.06,8.77
					C30.06,51.11,29.94,51.11,29.89,51.02z"/>
				<path d="M23.14,61.98H12.87c-0.1,0-0.16-0.1-0.11-0.19l5.14-8.89c0.05-0.08,0.17-0.08,0.22,0l5.13,8.89
					C23.29,61.87,23.23,61.98,23.14,61.98z"/>
				<path d="M23.89,61.42l-5.13-8.89c-0.05-0.08,0.01-0.19,0.11-0.19h10.26c0.1,0,0.16,0.1,0.11,0.19l-5.13,8.89
					C24.06,61.5,23.94,61.5,23.89,61.42z"/>
				<path d="M41.13,51.59H30.87c-0.1,0-0.16-0.1-0.11-0.19l5.13-8.89c0.05-0.08,0.17-0.08,0.22,0l5.13,8.89
					C41.29,51.48,41.23,51.59,41.13,51.59z"/>
				<path d="M35.82,61.3l-5.06-8.77c-0.05-0.08,0.01-0.19,0.11-0.19h10.12c0.1,0,0.16,0.1,0.11,0.19l-5.06,8.77
					C35.99,61.38,35.87,61.38,35.82,61.3z"/>
				<path d="M17.96,71.69l-5.06-8.77c-0.05-0.08,0.01-0.19,0.11-0.19h10.12c0.1,0,0.16,0.1,0.11,0.19l-5.06,8.77
					C18.13,71.77,18.01,71.77,17.96,71.69z"/>
				<path d="M35.13,61.98H24.87c-0.1,0-0.16-0.1-0.11-0.19l5.13-8.89c0.05-0.08,0.17-0.08,0.22,0l5.13,8.89
					C35.29,61.88,35.23,61.98,35.13,61.98z"/>
				<path d="M29.82,71.69l-5.06-8.77c-0.05-0.08,0.01-0.19,0.11-0.19h10.12c0.1,0,0.16,0.1,0.11,0.19l-5.06,8.77
					C29.99,71.77,29.87,71.77,29.82,71.69z"/>
				<path d="M29.14,72.37H18.87c-0.1,0-0.16-0.1-0.11-0.19l5.14-8.88c0.05-0.08,0.17-0.08,0.22,0l5.13,8.88
					C29.29,72.27,29.23,72.37,29.14,72.37z"/>
				<path d="M23.89,81.96l-4.99-8.65c-0.05-0.08,0.01-0.19,0.11-0.19h9.98c0.1,0,0.16,0.1,0.11,0.19l-4.99,8.65
					C24.06,82.04,23.94,82.04,23.89,81.96z"/>
			</g>
		</g>
	</g>
</svg>
